<mxfile host="Electron" agent="Mozilla/5.0 (Windows NT 10.0; Win64; x64) AppleWebKit/537.36 (KHTML, like Gecko) draw.io/26.2.15 Chrome/134.0.6998.205 Electron/35.2.1 Safari/537.36" version="26.2.15" pages="2">
  <diagram name="Pagina-1" id="tzSeFzARibz8kGO02Jns">
    <mxGraphModel dx="1210" dy="1201" grid="0" gridSize="10" guides="1" tooltips="1" connect="1" arrows="1" fold="1" page="1" pageScale="1" pageWidth="827" pageHeight="1169" background="none" math="0" shadow="0">
      <root>
        <mxCell id="0" />
        <mxCell id="1" parent="0" />
        <mxCell id="IMRC_PV42dCyneEDkOSP-18" value="&lt;span style=&quot;font-weight: 700;&quot;&gt;LivelloDifficoltÃ &lt;/span&gt;&lt;div&gt;&lt;span style=&quot;font-weight: 700;&quot;&gt;&amp;lt;&amp;lt;enum&amp;gt;&amp;gt;&lt;/span&gt;&lt;/div&gt;" style="swimlane;fontStyle=0;childLayout=stackLayout;horizontal=1;startSize=31;fillColor=#f5f5f5;horizontalStack=0;resizeParent=1;resizeParentMax=0;resizeLast=0;collapsible=1;marginBottom=0;whiteSpace=wrap;html=1;strokeColor=#666666;fontColor=#333333;" parent="1" vertex="1">
          <mxGeometry x="1135" y="15" width="151" height="161" as="geometry" />
        </mxCell>
        <mxCell id="IMRC_PV42dCyneEDkOSP-19" value="Principiante" style="text;strokeColor=none;fillColor=none;align=left;verticalAlign=top;spacingLeft=4;spacingRight=4;overflow=hidden;rotatable=0;points=[[0,0.5],[1,0.5]];portConstraint=eastwest;whiteSpace=wrap;html=1;" parent="IMRC_PV42dCyneEDkOSP-18" vertex="1">
          <mxGeometry y="31" width="151" height="26" as="geometry" />
        </mxCell>
        <mxCell id="IMRC_PV42dCyneEDkOSP-20" value="Facile" style="text;strokeColor=none;fillColor=none;align=left;verticalAlign=top;spacingLeft=4;spacingRight=4;overflow=hidden;rotatable=0;points=[[0,0.5],[1,0.5]];portConstraint=eastwest;whiteSpace=wrap;html=1;" parent="IMRC_PV42dCyneEDkOSP-18" vertex="1">
          <mxGeometry y="57" width="151" height="26" as="geometry" />
        </mxCell>
        <mxCell id="IMRC_PV42dCyneEDkOSP-21" value="Medio" style="text;strokeColor=none;fillColor=none;align=left;verticalAlign=top;spacingLeft=4;spacingRight=4;overflow=hidden;rotatable=0;points=[[0,0.5],[1,0.5]];portConstraint=eastwest;whiteSpace=wrap;html=1;" parent="IMRC_PV42dCyneEDkOSP-18" vertex="1">
          <mxGeometry y="83" width="151" height="26" as="geometry" />
        </mxCell>
        <mxCell id="IMRC_PV42dCyneEDkOSP-22" value="Difficile" style="text;strokeColor=none;fillColor=none;align=left;verticalAlign=top;spacingLeft=4;spacingRight=4;overflow=hidden;rotatable=0;points=[[0,0.5],[1,0.5]];portConstraint=eastwest;whiteSpace=wrap;html=1;" parent="IMRC_PV42dCyneEDkOSP-18" vertex="1">
          <mxGeometry y="109" width="151" height="26" as="geometry" />
        </mxCell>
        <mxCell id="IMRC_PV42dCyneEDkOSP-23" value="Esperto" style="text;strokeColor=none;fillColor=none;align=left;verticalAlign=top;spacingLeft=4;spacingRight=4;overflow=hidden;rotatable=0;points=[[0,0.5],[1,0.5]];portConstraint=eastwest;whiteSpace=wrap;html=1;" parent="IMRC_PV42dCyneEDkOSP-18" vertex="1">
          <mxGeometry y="135" width="151" height="26" as="geometry" />
        </mxCell>
        <mxCell id="IMRC_PV42dCyneEDkOSP-25" value="&lt;div&gt;&lt;span style=&quot;font-weight: 700;&quot;&gt;NaturaIngrediente&lt;/span&gt;&lt;/div&gt;&lt;div&gt;&lt;span style=&quot;font-weight: 700;&quot;&gt;&amp;lt;&amp;lt;enum&amp;gt;&amp;gt;&lt;/span&gt;&lt;/div&gt;" style="swimlane;fontStyle=0;childLayout=stackLayout;horizontal=1;startSize=31;fillColor=#f5f5f5;horizontalStack=0;resizeParent=1;resizeParentMax=0;resizeLast=0;collapsible=1;marginBottom=0;whiteSpace=wrap;html=1;strokeColor=#666666;fontColor=#333333;" parent="1" vertex="1">
          <mxGeometry x="1305.5" y="15" width="151" height="213" as="geometry" />
        </mxCell>
        <mxCell id="IMRC_PV42dCyneEDkOSP-26" value="Vegetale" style="text;strokeColor=none;fillColor=none;align=left;verticalAlign=top;spacingLeft=4;spacingRight=4;overflow=hidden;rotatable=0;points=[[0,0.5],[1,0.5]];portConstraint=eastwest;whiteSpace=wrap;html=1;" parent="IMRC_PV42dCyneEDkOSP-25" vertex="1">
          <mxGeometry y="31" width="151" height="26" as="geometry" />
        </mxCell>
        <mxCell id="IMRC_PV42dCyneEDkOSP-27" value="Animale" style="text;strokeColor=none;fillColor=none;align=left;verticalAlign=top;spacingLeft=4;spacingRight=4;overflow=hidden;rotatable=0;points=[[0,0.5],[1,0.5]];portConstraint=eastwest;whiteSpace=wrap;html=1;" parent="IMRC_PV42dCyneEDkOSP-25" vertex="1">
          <mxGeometry y="57" width="151" height="26" as="geometry" />
        </mxCell>
        <mxCell id="IMRC_PV42dCyneEDkOSP-28" value="Minerale" style="text;strokeColor=none;fillColor=none;align=left;verticalAlign=top;spacingLeft=4;spacingRight=4;overflow=hidden;rotatable=0;points=[[0,0.5],[1,0.5]];portConstraint=eastwest;whiteSpace=wrap;html=1;" parent="IMRC_PV42dCyneEDkOSP-25" vertex="1">
          <mxGeometry y="83" width="151" height="26" as="geometry" />
        </mxCell>
        <mxCell id="IMRC_PV42dCyneEDkOSP-29" value="Fungino" style="text;strokeColor=none;fillColor=none;align=left;verticalAlign=top;spacingLeft=4;spacingRight=4;overflow=hidden;rotatable=0;points=[[0,0.5],[1,0.5]];portConstraint=eastwest;whiteSpace=wrap;html=1;" parent="IMRC_PV42dCyneEDkOSP-25" vertex="1">
          <mxGeometry y="109" width="151" height="26" as="geometry" />
        </mxCell>
        <mxCell id="IMRC_PV42dCyneEDkOSP-30" value="Sintetico" style="text;strokeColor=none;fillColor=none;align=left;verticalAlign=top;spacingLeft=4;spacingRight=4;overflow=hidden;rotatable=0;points=[[0,0.5],[1,0.5]];portConstraint=eastwest;whiteSpace=wrap;html=1;" parent="IMRC_PV42dCyneEDkOSP-25" vertex="1">
          <mxGeometry y="135" width="151" height="26" as="geometry" />
        </mxCell>
        <mxCell id="IMRC_PV42dCyneEDkOSP-32" value="Microbico" style="text;strokeColor=none;fillColor=none;align=left;verticalAlign=top;spacingLeft=4;spacingRight=4;overflow=hidden;rotatable=0;points=[[0,0.5],[1,0.5]];portConstraint=eastwest;whiteSpace=wrap;html=1;" parent="IMRC_PV42dCyneEDkOSP-25" vertex="1">
          <mxGeometry y="161" width="151" height="26" as="geometry" />
        </mxCell>
        <mxCell id="IMRC_PV42dCyneEDkOSP-31" value="Altro" style="text;strokeColor=none;fillColor=none;align=left;verticalAlign=top;spacingLeft=4;spacingRight=4;overflow=hidden;rotatable=0;points=[[0,0.5],[1,0.5]];portConstraint=eastwest;whiteSpace=wrap;html=1;" parent="IMRC_PV42dCyneEDkOSP-25" vertex="1">
          <mxGeometry y="187" width="151" height="26" as="geometry" />
        </mxCell>
        <mxCell id="2lfUmVmsrSwcMmkW2v5s-1" value="&lt;div&gt;&lt;b&gt;UnitaDiMisura&lt;/b&gt;&lt;/div&gt;&lt;div&gt;&lt;span style=&quot;font-weight: 700;&quot;&gt;&amp;lt;&amp;lt;enum&amp;gt;&amp;gt;&lt;/span&gt;&lt;/div&gt;" style="swimlane;fontStyle=0;childLayout=stackLayout;horizontal=1;startSize=31;fillColor=#f5f5f5;horizontalStack=0;resizeParent=1;resizeParentMax=0;resizeLast=0;collapsible=1;marginBottom=0;whiteSpace=wrap;html=1;strokeColor=#666666;fontColor=#333333;" parent="1" vertex="1">
          <mxGeometry x="1484" y="15" width="151" height="265" as="geometry" />
        </mxCell>
        <mxCell id="2lfUmVmsrSwcMmkW2v5s-2" value="Grammi" style="text;strokeColor=none;fillColor=none;align=left;verticalAlign=top;spacingLeft=4;spacingRight=4;overflow=hidden;rotatable=0;points=[[0,0.5],[1,0.5]];portConstraint=eastwest;whiteSpace=wrap;html=1;" parent="2lfUmVmsrSwcMmkW2v5s-1" vertex="1">
          <mxGeometry y="31" width="151" height="26" as="geometry" />
        </mxCell>
        <mxCell id="2lfUmVmsrSwcMmkW2v5s-3" value="Kilogrammi" style="text;strokeColor=none;fillColor=none;align=left;verticalAlign=top;spacingLeft=4;spacingRight=4;overflow=hidden;rotatable=0;points=[[0,0.5],[1,0.5]];portConstraint=eastwest;whiteSpace=wrap;html=1;" parent="2lfUmVmsrSwcMmkW2v5s-1" vertex="1">
          <mxGeometry y="57" width="151" height="26" as="geometry" />
        </mxCell>
        <mxCell id="2lfUmVmsrSwcMmkW2v5s-4" value="Litri" style="text;strokeColor=none;fillColor=none;align=left;verticalAlign=top;spacingLeft=4;spacingRight=4;overflow=hidden;rotatable=0;points=[[0,0.5],[1,0.5]];portConstraint=eastwest;whiteSpace=wrap;html=1;" parent="2lfUmVmsrSwcMmkW2v5s-1" vertex="1">
          <mxGeometry y="83" width="151" height="26" as="geometry" />
        </mxCell>
        <mxCell id="2lfUmVmsrSwcMmkW2v5s-5" value="Millilitri" style="text;strokeColor=none;fillColor=none;align=left;verticalAlign=top;spacingLeft=4;spacingRight=4;overflow=hidden;rotatable=0;points=[[0,0.5],[1,0.5]];portConstraint=eastwest;whiteSpace=wrap;html=1;" parent="2lfUmVmsrSwcMmkW2v5s-1" vertex="1">
          <mxGeometry y="109" width="151" height="26" as="geometry" />
        </mxCell>
        <mxCell id="2lfUmVmsrSwcMmkW2v5s-6" value="Bicchiere" style="text;strokeColor=none;fillColor=none;align=left;verticalAlign=top;spacingLeft=4;spacingRight=4;overflow=hidden;rotatable=0;points=[[0,0.5],[1,0.5]];portConstraint=eastwest;whiteSpace=wrap;html=1;" parent="2lfUmVmsrSwcMmkW2v5s-1" vertex="1">
          <mxGeometry y="135" width="151" height="26" as="geometry" />
        </mxCell>
        <mxCell id="2lfUmVmsrSwcMmkW2v5s-7" value="Tazza" style="text;strokeColor=none;fillColor=none;align=left;verticalAlign=top;spacingLeft=4;spacingRight=4;overflow=hidden;rotatable=0;points=[[0,0.5],[1,0.5]];portConstraint=eastwest;whiteSpace=wrap;html=1;" parent="2lfUmVmsrSwcMmkW2v5s-1" vertex="1">
          <mxGeometry y="161" width="151" height="26" as="geometry" />
        </mxCell>
        <mxCell id="2lfUmVmsrSwcMmkW2v5s-8" value="Tazzina" style="text;strokeColor=none;fillColor=none;align=left;verticalAlign=top;spacingLeft=4;spacingRight=4;overflow=hidden;rotatable=0;points=[[0,0.5],[1,0.5]];portConstraint=eastwest;whiteSpace=wrap;html=1;" parent="2lfUmVmsrSwcMmkW2v5s-1" vertex="1">
          <mxGeometry y="187" width="151" height="26" as="geometry" />
        </mxCell>
        <mxCell id="2lfUmVmsrSwcMmkW2v5s-9" value="Cucchiaio" style="text;strokeColor=none;fillColor=none;align=left;verticalAlign=top;spacingLeft=4;spacingRight=4;overflow=hidden;rotatable=0;points=[[0,0.5],[1,0.5]];portConstraint=eastwest;whiteSpace=wrap;html=1;" parent="2lfUmVmsrSwcMmkW2v5s-1" vertex="1">
          <mxGeometry y="213" width="151" height="26" as="geometry" />
        </mxCell>
        <mxCell id="2lfUmVmsrSwcMmkW2v5s-10" value="Cucchiaino" style="text;strokeColor=none;fillColor=none;align=left;verticalAlign=top;spacingLeft=4;spacingRight=4;overflow=hidden;rotatable=0;points=[[0,0.5],[1,0.5]];portConstraint=eastwest;whiteSpace=wrap;html=1;" parent="2lfUmVmsrSwcMmkW2v5s-1" vertex="1">
          <mxGeometry y="239" width="151" height="26" as="geometry" />
        </mxCell>
        <mxCell id="pQDB7X862aVxrx34mf7B-1" value="Utente" style="swimlane;fontStyle=1;align=center;verticalAlign=top;childLayout=stackLayout;horizontal=1;startSize=26;horizontalStack=0;resizeParent=1;resizeParentMax=0;resizeLast=0;collapsible=1;marginBottom=0;whiteSpace=wrap;html=1;fillColor=#f8cecc;strokeColor=#b85450;" parent="1" vertex="1">
          <mxGeometry x="930" y="216.5" width="210" height="234" as="geometry" />
        </mxCell>
        <mxCell id="pQDB7X862aVxrx34mf7B-2" value="+ Username: String [1]" style="text;strokeColor=none;fillColor=none;align=left;verticalAlign=top;spacingLeft=4;spacingRight=4;overflow=hidden;rotatable=0;points=[[0,0.5],[1,0.5]];portConstraint=eastwest;whiteSpace=wrap;html=1;" parent="pQDB7X862aVxrx34mf7B-1" vertex="1">
          <mxGeometry y="26" width="210" height="26" as="geometry" />
        </mxCell>
        <mxCell id="pQDB7X862aVxrx34mf7B-3" value="+ Nome: String [1]" style="text;strokeColor=none;fillColor=none;align=left;verticalAlign=top;spacingLeft=4;spacingRight=4;overflow=hidden;rotatable=0;points=[[0,0.5],[1,0.5]];portConstraint=eastwest;whiteSpace=wrap;html=1;" parent="pQDB7X862aVxrx34mf7B-1" vertex="1">
          <mxGeometry y="52" width="210" height="26" as="geometry" />
        </mxCell>
        <mxCell id="pQDB7X862aVxrx34mf7B-4" value="+ Cognome: String [1]" style="text;strokeColor=none;fillColor=none;align=left;verticalAlign=top;spacingLeft=4;spacingRight=4;overflow=hidden;rotatable=0;points=[[0,0.5],[1,0.5]];portConstraint=eastwest;whiteSpace=wrap;html=1;" parent="pQDB7X862aVxrx34mf7B-1" vertex="1">
          <mxGeometry y="78" width="210" height="26" as="geometry" />
        </mxCell>
        <mxCell id="pQDB7X862aVxrx34mf7B-5" value="+ CodiceFiscale: String [1]" style="text;strokeColor=none;fillColor=none;align=left;verticalAlign=top;spacingLeft=4;spacingRight=4;overflow=hidden;rotatable=0;points=[[0,0.5],[1,0.5]];portConstraint=eastwest;whiteSpace=wrap;html=1;" parent="pQDB7X862aVxrx34mf7B-1" vertex="1">
          <mxGeometry y="104" width="210" height="26" as="geometry" />
        </mxCell>
        <mxCell id="pQDB7X862aVxrx34mf7B-6" value="+ DataDiNascita: Data [1]" style="text;strokeColor=none;fillColor=none;align=left;verticalAlign=top;spacingLeft=4;spacingRight=4;overflow=hidden;rotatable=0;points=[[0,0.5],[1,0.5]];portConstraint=eastwest;whiteSpace=wrap;html=1;" parent="pQDB7X862aVxrx34mf7B-1" vertex="1">
          <mxGeometry y="130" width="210" height="26" as="geometry" />
        </mxCell>
        <mxCell id="pQDB7X862aVxrx34mf7B-7" value="+ LuogoDiNascita: String [1]" style="text;strokeColor=none;fillColor=none;align=left;verticalAlign=top;spacingLeft=4;spacingRight=4;overflow=hidden;rotatable=0;points=[[0,0.5],[1,0.5]];portConstraint=eastwest;whiteSpace=wrap;html=1;" parent="pQDB7X862aVxrx34mf7B-1" vertex="1">
          <mxGeometry y="156" width="210" height="26" as="geometry" />
        </mxCell>
        <mxCell id="pQDB7X862aVxrx34mf7B-8" value="+ Email: String[1]" style="text;strokeColor=none;fillColor=none;align=left;verticalAlign=top;spacingLeft=4;spacingRight=4;overflow=hidden;rotatable=0;points=[[0,0.5],[1,0.5]];portConstraint=eastwest;whiteSpace=wrap;html=1;" parent="pQDB7X862aVxrx34mf7B-1" vertex="1">
          <mxGeometry y="182" width="210" height="26" as="geometry" />
        </mxCell>
        <mxCell id="pQDB7X862aVxrx34mf7B-9" value="+ Password: String [1]" style="text;strokeColor=none;fillColor=none;align=left;verticalAlign=top;spacingLeft=4;spacingRight=4;overflow=hidden;rotatable=0;points=[[0,0.5],[1,0.5]];portConstraint=eastwest;whiteSpace=wrap;html=1;" parent="pQDB7X862aVxrx34mf7B-1" vertex="1">
          <mxGeometry y="208" width="210" height="26" as="geometry" />
        </mxCell>
        <mxCell id="pQDB7X862aVxrx34mf7B-10" value="Corso" style="swimlane;fontStyle=1;align=center;verticalAlign=top;childLayout=stackLayout;horizontal=1;startSize=26;horizontalStack=0;resizeParent=1;resizeParentMax=0;resizeLast=0;collapsible=1;marginBottom=0;whiteSpace=wrap;html=1;fillColor=#d5e8d4;strokeColor=#82b366;" parent="1" vertex="1">
          <mxGeometry x="1402" y="420" width="182" height="238" as="geometry" />
        </mxCell>
        <mxCell id="pQDB7X862aVxrx34mf7B-11" value="+ Nome: String [1]" style="text;strokeColor=none;fillColor=none;align=left;verticalAlign=top;spacingLeft=4;spacingRight=4;overflow=hidden;rotatable=0;points=[[0,0.5],[1,0.5]];portConstraint=eastwest;whiteSpace=wrap;html=1;" parent="pQDB7X862aVxrx34mf7B-10" vertex="1">
          <mxGeometry y="26" width="182" height="26" as="geometry" />
        </mxCell>
        <mxCell id="pQDB7X862aVxrx34mf7B-12" value="+ DataInizio: Data [1]" style="text;strokeColor=none;fillColor=none;align=left;verticalAlign=top;spacingLeft=4;spacingRight=4;overflow=hidden;rotatable=0;points=[[0,0.5],[1,0.5]];portConstraint=eastwest;whiteSpace=wrap;html=1;" parent="pQDB7X862aVxrx34mf7B-10" vertex="1">
          <mxGeometry y="52" width="182" height="26" as="geometry" />
        </mxCell>
        <mxCell id="pQDB7X862aVxrx34mf7B-13" value="+ NumeroSessioni: Integer [1]" style="text;strokeColor=none;fillColor=none;align=left;verticalAlign=top;spacingLeft=4;spacingRight=4;overflow=hidden;rotatable=0;points=[[0,0.5],[1,0.5]];portConstraint=eastwest;whiteSpace=wrap;html=1;" parent="pQDB7X862aVxrx34mf7B-10" vertex="1">
          <mxGeometry y="78" width="182" height="26" as="geometry" />
        </mxCell>
        <mxCell id="pQDB7X862aVxrx34mf7B-14" value="+ FrequenzaSessioni: String[1]" style="text;strokeColor=none;fillColor=none;align=left;verticalAlign=top;spacingLeft=4;spacingRight=4;overflow=hidden;rotatable=0;points=[[0,0.5],[1,0.5]];portConstraint=eastwest;whiteSpace=wrap;html=1;" parent="pQDB7X862aVxrx34mf7B-10" vertex="1">
          <mxGeometry y="104" width="182" height="26" as="geometry" />
        </mxCell>
        <mxCell id="pQDB7X862aVxrx34mf7B-15" value="&amp;nbsp;+ Limite: Integer [0..1]" style="text;html=1;align=left;verticalAlign=middle;whiteSpace=wrap;rounded=0;" parent="pQDB7X862aVxrx34mf7B-10" vertex="1">
          <mxGeometry y="130" width="182" height="30" as="geometry" />
        </mxCell>
        <mxCell id="pQDB7X862aVxrx34mf7B-16" value="+ Descrizione: String [1]" style="text;strokeColor=none;fillColor=none;align=left;verticalAlign=top;spacingLeft=4;spacingRight=4;overflow=hidden;rotatable=0;points=[[0,0.5],[1,0.5]];portConstraint=eastwest;whiteSpace=wrap;html=1;" parent="pQDB7X862aVxrx34mf7B-10" vertex="1">
          <mxGeometry y="160" width="182" height="26" as="geometry" />
        </mxCell>
        <mxCell id="pQDB7X862aVxrx34mf7B-17" value="+ Costo: Double [1]" style="text;strokeColor=none;fillColor=none;align=left;verticalAlign=top;spacingLeft=4;spacingRight=4;overflow=hidden;rotatable=0;points=[[0,0.5],[1,0.5]];portConstraint=eastwest;whiteSpace=wrap;html=1;" parent="pQDB7X862aVxrx34mf7B-10" vertex="1">
          <mxGeometry y="186" width="182" height="26" as="geometry" />
        </mxCell>
        <mxCell id="pQDB7X862aVxrx34mf7B-18" value="+ isPratico: Boolean [1]" style="text;strokeColor=none;fillColor=none;align=left;verticalAlign=top;spacingLeft=4;spacingRight=4;overflow=hidden;rotatable=0;points=[[0,0.5],[1,0.5]];portConstraint=eastwest;whiteSpace=wrap;html=1;" parent="pQDB7X862aVxrx34mf7B-10" vertex="1">
          <mxGeometry y="212" width="182" height="26" as="geometry" />
        </mxCell>
        <mxCell id="pQDB7X862aVxrx34mf7B-19" value="&lt;div style=&quot;text-align: left;&quot;&gt;&lt;b&gt;Argomento&lt;/b&gt;&lt;/div&gt;" style="swimlane;fontStyle=0;childLayout=stackLayout;horizontal=1;startSize=26;horizontalStack=0;resizeParent=1;resizeParentMax=0;resizeLast=0;collapsible=1;marginBottom=0;whiteSpace=wrap;html=1;fillColor=#e1d5e7;strokeColor=#9673a6;" parent="1" vertex="1">
          <mxGeometry x="1423" y="301" width="140" height="52" as="geometry" />
        </mxCell>
        <mxCell id="pQDB7X862aVxrx34mf7B-20" value="+ Nome: String [1]" style="text;strokeColor=none;fillColor=none;align=left;verticalAlign=top;spacingLeft=4;spacingRight=4;overflow=hidden;rotatable=0;points=[[0,0.5],[1,0.5]];portConstraint=eastwest;whiteSpace=wrap;html=1;" parent="pQDB7X862aVxrx34mf7B-19" vertex="1">
          <mxGeometry y="26" width="140" height="26" as="geometry" />
        </mxCell>
        <mxCell id="pQDB7X862aVxrx34mf7B-21" value="&lt;b&gt;Sessione&lt;/b&gt;" style="swimlane;fontStyle=0;childLayout=stackLayout;horizontal=1;startSize=26;horizontalStack=0;resizeParent=1;resizeParentMax=0;resizeLast=0;collapsible=1;marginBottom=0;whiteSpace=wrap;html=1;fillColor=#fff2cc;strokeColor=#d6b656;" parent="1" vertex="1">
          <mxGeometry x="1417" y="706" width="140" height="104" as="geometry" />
        </mxCell>
        <mxCell id="pQDB7X862aVxrx34mf7B-22" value="+ Durata: Integer [1]" style="text;strokeColor=none;fillColor=none;align=left;verticalAlign=top;spacingLeft=4;spacingRight=4;overflow=hidden;rotatable=0;points=[[0,0.5],[1,0.5]];portConstraint=eastwest;whiteSpace=wrap;html=1;" parent="pQDB7X862aVxrx34mf7B-21" vertex="1">
          <mxGeometry y="26" width="140" height="26" as="geometry" />
        </mxCell>
        <mxCell id="pQDB7X862aVxrx34mf7B-23" value="+ Orario:&amp;nbsp;&lt;span class=&quot;router-outlet-wrapper ng-tns-c4274809755-0&quot;&gt;Time [1]&lt;/span&gt;" style="text;strokeColor=none;fillColor=none;align=left;verticalAlign=top;spacingLeft=4;spacingRight=4;overflow=hidden;rotatable=0;points=[[0,0.5],[1,0.5]];portConstraint=eastwest;whiteSpace=wrap;html=1;" parent="pQDB7X862aVxrx34mf7B-21" vertex="1">
          <mxGeometry y="52" width="140" height="26" as="geometry" />
        </mxCell>
        <mxCell id="pQDB7X862aVxrx34mf7B-24" value="+ Data: Data [1]" style="text;strokeColor=none;fillColor=none;align=left;verticalAlign=top;spacingLeft=4;spacingRight=4;overflow=hidden;rotatable=0;points=[[0,0.5],[1,0.5]];portConstraint=eastwest;whiteSpace=wrap;html=1;" parent="pQDB7X862aVxrx34mf7B-21" vertex="1">
          <mxGeometry y="78" width="140" height="26" as="geometry" />
        </mxCell>
        <mxCell id="pQDB7X862aVxrx34mf7B-25" value="&lt;b&gt;Sessione_Pratica&lt;/b&gt;" style="swimlane;fontStyle=0;childLayout=stackLayout;horizontal=1;startSize=26;horizontalStack=0;resizeParent=1;resizeParentMax=0;resizeLast=0;collapsible=1;marginBottom=0;whiteSpace=wrap;html=1;fillColor=#fff2cc;strokeColor=#d6b656;" parent="1" vertex="1">
          <mxGeometry x="1295" y="892" width="156" height="78" as="geometry" />
        </mxCell>
        <mxCell id="pQDB7X862aVxrx34mf7B-26" value="+ NumeroUtenti: Integer [1]" style="text;strokeColor=none;fillColor=none;align=left;verticalAlign=top;spacingLeft=4;spacingRight=4;overflow=hidden;rotatable=0;points=[[0,0.5],[1,0.5]];portConstraint=eastwest;whiteSpace=wrap;html=1;" parent="pQDB7X862aVxrx34mf7B-25" vertex="1">
          <mxGeometry y="26" width="156" height="26" as="geometry" />
        </mxCell>
        <mxCell id="pQDB7X862aVxrx34mf7B-27" value="+ Indirizzo: String [1]" style="text;strokeColor=none;fillColor=none;align=left;verticalAlign=top;spacingLeft=4;spacingRight=4;overflow=hidden;rotatable=0;points=[[0,0.5],[1,0.5]];portConstraint=eastwest;whiteSpace=wrap;html=1;" parent="pQDB7X862aVxrx34mf7B-25" vertex="1">
          <mxGeometry y="52" width="156" height="26" as="geometry" />
        </mxCell>
        <mxCell id="pQDB7X862aVxrx34mf7B-28" value="Ingrediente" style="swimlane;fontStyle=1;align=center;verticalAlign=top;childLayout=stackLayout;horizontal=1;startSize=26;horizontalStack=0;resizeParent=1;resizeParentMax=0;resizeLast=0;collapsible=1;marginBottom=0;whiteSpace=wrap;html=1;fillColor=#dae8fc;strokeColor=#6c8ebf;" parent="1" vertex="1">
          <mxGeometry x="856.5" y="985" width="228" height="78" as="geometry" />
        </mxCell>
        <mxCell id="pQDB7X862aVxrx34mf7B-29" value="+ Nome: String [1]" style="text;strokeColor=none;fillColor=none;align=left;verticalAlign=top;spacingLeft=4;spacingRight=4;overflow=hidden;rotatable=0;points=[[0,0.5],[1,0.5]];portConstraint=eastwest;whiteSpace=wrap;html=1;" parent="pQDB7X862aVxrx34mf7B-28" vertex="1">
          <mxGeometry y="26" width="228" height="26" as="geometry" />
        </mxCell>
        <mxCell id="pQDB7X862aVxrx34mf7B-30" value="+ Origine: NaturaIngrediente" style="text;strokeColor=none;fillColor=none;align=left;verticalAlign=top;spacingLeft=4;spacingRight=4;overflow=hidden;rotatable=0;points=[[0,0.5],[1,0.5]];portConstraint=eastwest;whiteSpace=wrap;html=1;" parent="pQDB7X862aVxrx34mf7B-28" vertex="1">
          <mxGeometry y="52" width="228" height="26" as="geometry" />
        </mxCell>
        <mxCell id="pQDB7X862aVxrx34mf7B-33" value="" style="endArrow=block;endSize=16;endFill=0;html=1;rounded=0;" parent="1" source="pQDB7X862aVxrx34mf7B-72" target="pQDB7X862aVxrx34mf7B-1" edge="1">
          <mxGeometry y="10" width="160" relative="1" as="geometry">
            <mxPoint x="964" y="596.5" as="sourcePoint" />
            <mxPoint x="970" y="480.5" as="targetPoint" />
            <Array as="points" />
            <mxPoint as="offset" />
          </mxGeometry>
        </mxCell>
        <mxCell id="pQDB7X862aVxrx34mf7B-36" value="&lt;b&gt;Ricetta&lt;/b&gt;" style="swimlane;fontStyle=0;childLayout=stackLayout;horizontal=1;startSize=26;horizontalStack=0;resizeParent=1;resizeParentMax=0;resizeLast=0;collapsible=1;marginBottom=0;whiteSpace=wrap;html=1;fillColor=#dae8fc;strokeColor=#6c8ebf;" parent="1" vertex="1">
          <mxGeometry x="893.5" y="695" width="154" height="182" as="geometry" />
        </mxCell>
        <mxCell id="pQDB7X862aVxrx34mf7B-37" value="+ Nome: String [1]" style="text;strokeColor=none;fillColor=none;align=left;verticalAlign=top;spacingLeft=4;spacingRight=4;overflow=hidden;rotatable=0;points=[[0,0.5],[1,0.5]];portConstraint=eastwest;whiteSpace=wrap;html=1;" parent="pQDB7X862aVxrx34mf7B-36" vertex="1">
          <mxGeometry y="26" width="154" height="26" as="geometry" />
        </mxCell>
        <mxCell id="pQDB7X862aVxrx34mf7B-38" value="+ Provenienza: String [1]" style="text;strokeColor=none;fillColor=none;align=left;verticalAlign=top;spacingLeft=4;spacingRight=4;overflow=hidden;rotatable=0;points=[[0,0.5],[1,0.5]];portConstraint=eastwest;whiteSpace=wrap;html=1;" parent="pQDB7X862aVxrx34mf7B-36" vertex="1">
          <mxGeometry y="52" width="154" height="26" as="geometry" />
        </mxCell>
        <mxCell id="pQDB7X862aVxrx34mf7B-39" value="+ Tempo: Time[1]" style="text;strokeColor=none;fillColor=none;align=left;verticalAlign=top;spacingLeft=4;spacingRight=4;overflow=hidden;rotatable=0;points=[[0,0.5],[1,0.5]];portConstraint=eastwest;whiteSpace=wrap;html=1;" parent="pQDB7X862aVxrx34mf7B-36" vertex="1">
          <mxGeometry y="78" width="154" height="26" as="geometry" />
        </mxCell>
        <mxCell id="pQDB7X862aVxrx34mf7B-40" value="+ Calorie: Integer [1]" style="text;strokeColor=none;fillColor=none;align=left;verticalAlign=top;spacingLeft=4;spacingRight=4;overflow=hidden;rotatable=0;points=[[0,0.5],[1,0.5]];portConstraint=eastwest;whiteSpace=wrap;html=1;" parent="pQDB7X862aVxrx34mf7B-36" vertex="1">
          <mxGeometry y="104" width="154" height="26" as="geometry" />
        </mxCell>
        <mxCell id="pQDB7X862aVxrx34mf7B-41" value="+ DifficoltÃ : LivelloDifficoltÃ " style="text;strokeColor=none;fillColor=none;align=left;verticalAlign=top;spacingLeft=4;spacingRight=4;overflow=hidden;rotatable=0;points=[[0,0.5],[1,0.5]];portConstraint=eastwest;whiteSpace=wrap;html=1;" parent="pQDB7X862aVxrx34mf7B-36" vertex="1">
          <mxGeometry y="130" width="154" height="26" as="geometry" />
        </mxCell>
        <mxCell id="pQDB7X862aVxrx34mf7B-42" value="+ Allergeni: String [0..1]" style="text;strokeColor=none;fillColor=none;align=left;verticalAlign=top;spacingLeft=4;spacingRight=4;overflow=hidden;rotatable=0;points=[[0,0.5],[1,0.5]];portConstraint=eastwest;whiteSpace=wrap;html=1;" parent="pQDB7X862aVxrx34mf7B-36" vertex="1">
          <mxGeometry y="156" width="154" height="26" as="geometry" />
        </mxCell>
        <mxCell id="pQDB7X862aVxrx34mf7B-55" value="" style="endArrow=none;dashed=1;html=1;rounded=0;" parent="1" source="pQDB7X862aVxrx34mf7B-56" edge="1">
          <mxGeometry width="50" height="50" relative="1" as="geometry">
            <mxPoint x="1282" y="1067" as="sourcePoint" />
            <mxPoint x="972" y="931" as="targetPoint" />
          </mxGeometry>
        </mxCell>
        <mxCell id="pQDB7X862aVxrx34mf7B-56" value="Utilizzo" style="swimlane;fontStyle=0;childLayout=stackLayout;horizontal=1;startSize=26;fillColor=#ffe6cc;horizontalStack=0;resizeParent=1;resizeParentMax=0;resizeLast=0;collapsible=1;marginBottom=0;whiteSpace=wrap;html=1;strokeColor=#d79b00;" parent="1" vertex="1">
          <mxGeometry x="1038" y="892" width="140" height="78" as="geometry" />
        </mxCell>
        <mxCell id="pQDB7X862aVxrx34mf7B-57" value="+ QuantitÃ : String [1]" style="text;strokeColor=none;fillColor=none;align=left;verticalAlign=top;spacingLeft=4;spacingRight=4;overflow=hidden;rotatable=0;points=[[0,0.5],[1,0.5]];portConstraint=eastwest;whiteSpace=wrap;html=1;" parent="pQDB7X862aVxrx34mf7B-56" vertex="1">
          <mxGeometry y="26" width="140" height="26" as="geometry" />
        </mxCell>
        <mxCell id="pQDB7X862aVxrx34mf7B-58" value="+ UDM: UnitaDiMisura" style="text;strokeColor=none;fillColor=none;align=left;verticalAlign=top;spacingLeft=4;spacingRight=4;overflow=hidden;rotatable=0;points=[[0,0.5],[1,0.5]];portConstraint=eastwest;whiteSpace=wrap;html=1;" parent="pQDB7X862aVxrx34mf7B-56" vertex="1">
          <mxGeometry y="52" width="140" height="26" as="geometry" />
        </mxCell>
        <mxCell id="pQDB7X862aVxrx34mf7B-61" value="&lt;b&gt;Sessione_Online&lt;/b&gt;" style="swimlane;fontStyle=0;childLayout=stackLayout;horizontal=1;startSize=26;horizontalStack=0;resizeParent=1;resizeParentMax=0;resizeLast=0;collapsible=1;marginBottom=0;whiteSpace=wrap;html=1;fillColor=#fff2cc;strokeColor=#d6b656;" parent="1" vertex="1">
          <mxGeometry x="1482" y="892" width="155" height="52" as="geometry" />
        </mxCell>
        <mxCell id="pQDB7X862aVxrx34mf7B-62" value="+ LinkRiunione: String [1]" style="text;strokeColor=none;fillColor=none;align=left;verticalAlign=top;spacingLeft=4;spacingRight=4;overflow=hidden;rotatable=0;points=[[0,0.5],[1,0.5]];portConstraint=eastwest;whiteSpace=wrap;html=1;" parent="pQDB7X862aVxrx34mf7B-61" vertex="1">
          <mxGeometry y="26" width="155" height="26" as="geometry" />
        </mxCell>
        <mxCell id="pQDB7X862aVxrx34mf7B-65" value="{Totale / Disgiunta}" style="text;html=1;align=center;verticalAlign=middle;whiteSpace=wrap;rounded=0;" parent="1" vertex="1">
          <mxGeometry x="1537" y="819" width="108" height="28" as="geometry" />
        </mxCell>
        <mxCell id="pQDB7X862aVxrx34mf7B-66" value="" style="endArrow=block;endSize=16;endFill=0;html=1;rounded=0;" parent="1" source="pQDB7X862aVxrx34mf7B-74" target="pQDB7X862aVxrx34mf7B-1" edge="1">
          <mxGeometry y="10" width="160" relative="1" as="geometry">
            <mxPoint x="1125.21" y="598.156" as="sourcePoint" />
            <mxPoint x="1145" y="476.5" as="targetPoint" />
            <Array as="points" />
            <mxPoint as="offset" />
          </mxGeometry>
        </mxCell>
        <mxCell id="pQDB7X862aVxrx34mf7B-67" value="" style="endArrow=none;dashed=1;html=1;rounded=0;" parent="1" edge="1">
          <mxGeometry width="50" height="50" relative="1" as="geometry">
            <mxPoint x="955" y="495" as="sourcePoint" />
            <mxPoint x="1136" y="495" as="targetPoint" />
          </mxGeometry>
        </mxCell>
        <mxCell id="pQDB7X862aVxrx34mf7B-68" value="{Totale / Disgiunta}" style="text;html=1;align=center;verticalAlign=middle;whiteSpace=wrap;rounded=0;" parent="1" vertex="1">
          <mxGeometry x="1112" y="466" width="121" height="28" as="geometry" />
        </mxCell>
        <mxCell id="pQDB7X862aVxrx34mf7B-72" value="Partecipante" style="swimlane;fontStyle=1;align=center;verticalAlign=top;childLayout=stackLayout;horizontal=1;startSize=26;horizontalStack=0;resizeParent=1;resizeParentMax=0;resizeLast=0;collapsible=1;marginBottom=0;whiteSpace=wrap;html=1;fillColor=#f8cecc;strokeColor=#b85450;" parent="1" vertex="1">
          <mxGeometry x="1046" y="522" width="163" height="52" as="geometry" />
        </mxCell>
        <mxCell id="pQDB7X862aVxrx34mf7B-73" value="+&amp;nbsp; NumeroCorsi: Integer [1]" style="text;strokeColor=none;fillColor=none;align=left;verticalAlign=top;spacingLeft=4;spacingRight=4;overflow=hidden;rotatable=0;points=[[0,0.5],[1,0.5]];portConstraint=eastwest;whiteSpace=wrap;html=1;" parent="pQDB7X862aVxrx34mf7B-72" vertex="1">
          <mxGeometry y="26" width="163" height="26" as="geometry" />
        </mxCell>
        <mxCell id="pQDB7X862aVxrx34mf7B-74" value="Chef" style="swimlane;fontStyle=1;align=center;verticalAlign=top;childLayout=stackLayout;horizontal=1;startSize=26;horizontalStack=0;resizeParent=1;resizeParentMax=0;resizeLast=0;collapsible=1;marginBottom=0;whiteSpace=wrap;html=1;fillColor=#f8cecc;strokeColor=#b85450;" parent="1" vertex="1">
          <mxGeometry x="901" y="520" width="139" height="56" as="geometry" />
        </mxCell>
        <mxCell id="pQDB7X862aVxrx34mf7B-75" value="+ Curriculum: String [1]" style="text;strokeColor=none;fillColor=none;align=left;verticalAlign=top;spacingLeft=4;spacingRight=4;overflow=hidden;rotatable=0;points=[[0,0.5],[1,0.5]];portConstraint=eastwest;whiteSpace=wrap;html=1;" parent="pQDB7X862aVxrx34mf7B-74" vertex="1">
          <mxGeometry y="26" width="139" height="30" as="geometry" />
        </mxCell>
        <mxCell id="pQDB7X862aVxrx34mf7B-78" value="" style="endArrow=none;dashed=1;html=1;rounded=0;" parent="1" source="pQDB7X862aVxrx34mf7B-79" edge="1">
          <mxGeometry width="50" height="50" relative="1" as="geometry">
            <mxPoint x="1233" y="750.5" as="sourcePoint" />
            <mxPoint x="1246" y="845" as="targetPoint" />
          </mxGeometry>
        </mxCell>
        <mxCell id="pQDB7X862aVxrx34mf7B-79" value="Adesione" style="swimlane;fontStyle=0;childLayout=stackLayout;horizontal=1;startSize=26;fillColor=#ffe6cc;horizontalStack=0;resizeParent=1;resizeParentMax=0;resizeLast=0;collapsible=1;marginBottom=0;whiteSpace=wrap;html=1;strokeColor=#d79b00;" parent="1" vertex="1">
          <mxGeometry x="1166" y="751.5" width="159" height="52" as="geometry" />
        </mxCell>
        <mxCell id="pQDB7X862aVxrx34mf7B-80" value="+ DataAdesione: Data [1]" style="text;strokeColor=none;fillColor=none;align=left;verticalAlign=top;spacingLeft=4;spacingRight=4;overflow=hidden;rotatable=0;points=[[0,0.5],[1,0.5]];portConstraint=eastwest;whiteSpace=wrap;html=1;" parent="pQDB7X862aVxrx34mf7B-79" vertex="1">
          <mxGeometry y="26" width="159" height="26" as="geometry" />
        </mxCell>
        <mxCell id="pQDB7X862aVxrx34mf7B-107" value="" style="endArrow=none;html=1;rounded=0;" parent="1" source="pQDB7X862aVxrx34mf7B-28" target="pQDB7X862aVxrx34mf7B-36" edge="1">
          <mxGeometry width="50" height="50" relative="1" as="geometry">
            <mxPoint x="1173" y="899" as="sourcePoint" />
            <mxPoint x="1223" y="849" as="targetPoint" />
          </mxGeometry>
        </mxCell>
        <mxCell id="pQDB7X862aVxrx34mf7B-109" value="0..*" style="edgeLabel;resizable=0;html=1;align=right;verticalAlign=bottom;fontSize=12;" parent="1" connectable="0" vertex="1">
          <mxGeometry x="965" y="896" as="geometry" />
        </mxCell>
        <mxCell id="pQDB7X862aVxrx34mf7B-110" value="0..*" style="edgeLabel;resizable=0;html=1;align=left;verticalAlign=bottom;fontSize=12;" parent="1" connectable="0" vertex="1">
          <mxGeometry x="1493" y="706" as="geometry" />
        </mxCell>
        <mxCell id="pQDB7X862aVxrx34mf7B-111" value="" style="endArrow=diamondThin;endFill=1;endSize=24;html=1;rounded=0;entryX=0.459;entryY=1.027;entryDx=0;entryDy=0;entryPerimeter=0;" parent="1" source="pQDB7X862aVxrx34mf7B-21" target="pQDB7X862aVxrx34mf7B-18" edge="1">
          <mxGeometry width="160" relative="1" as="geometry">
            <mxPoint x="1203" y="723" as="sourcePoint" />
            <mxPoint x="1145" y="723" as="targetPoint" />
            <Array as="points" />
          </mxGeometry>
        </mxCell>
        <mxCell id="pQDB7X862aVxrx34mf7B-112" value="" style="endArrow=none;html=1;rounded=0;" parent="1" source="pQDB7X862aVxrx34mf7B-36" target="pQDB7X862aVxrx34mf7B-74" edge="1">
          <mxGeometry width="50" height="50" relative="1" as="geometry">
            <mxPoint x="1015" y="673" as="sourcePoint" />
            <mxPoint x="1065" y="623" as="targetPoint" />
          </mxGeometry>
        </mxCell>
        <mxCell id="pQDB7X862aVxrx34mf7B-113" value="" style="endArrow=block;endSize=16;endFill=0;html=1;rounded=0;" parent="1" source="pQDB7X862aVxrx34mf7B-25" target="pQDB7X862aVxrx34mf7B-21" edge="1">
          <mxGeometry y="10" width="160" relative="1" as="geometry">
            <mxPoint x="1340" y="821" as="sourcePoint" />
            <mxPoint x="1377" y="757" as="targetPoint" />
            <Array as="points" />
            <mxPoint as="offset" />
          </mxGeometry>
        </mxCell>
        <mxCell id="pQDB7X862aVxrx34mf7B-114" value="" style="endArrow=block;endSize=16;endFill=0;html=1;rounded=0;" parent="1" source="pQDB7X862aVxrx34mf7B-61" target="pQDB7X862aVxrx34mf7B-21" edge="1">
          <mxGeometry y="10" width="160" relative="1" as="geometry">
            <mxPoint x="1309" y="760" as="sourcePoint" />
            <mxPoint x="1346" y="696" as="targetPoint" />
            <Array as="points" />
            <mxPoint as="offset" />
          </mxGeometry>
        </mxCell>
        <mxCell id="pQDB7X862aVxrx34mf7B-115" value="" style="endArrow=none;dashed=1;html=1;rounded=0;" parent="1" edge="1">
          <mxGeometry width="50" height="50" relative="1" as="geometry">
            <mxPoint x="1405" y="851" as="sourcePoint" />
            <mxPoint x="1559" y="851" as="targetPoint" />
          </mxGeometry>
        </mxCell>
        <mxCell id="pQDB7X862aVxrx34mf7B-116" value="" style="endArrow=none;html=1;rounded=0;" parent="1" source="pQDB7X862aVxrx34mf7B-25" target="pQDB7X862aVxrx34mf7B-72" edge="1">
          <mxGeometry width="50" height="50" relative="1" as="geometry">
            <mxPoint x="1115" y="751" as="sourcePoint" />
            <mxPoint x="1165" y="701" as="targetPoint" />
            <Array as="points">
              <mxPoint x="1373" y="842" />
              <mxPoint x="1128" y="842" />
            </Array>
          </mxGeometry>
        </mxCell>
        <mxCell id="pQDB7X862aVxrx34mf7B-117" value="" style="endArrow=none;html=1;rounded=0;" parent="1" source="pQDB7X862aVxrx34mf7B-36" edge="1">
          <mxGeometry width="50" height="50" relative="1" as="geometry">
            <mxPoint x="1052" y="671" as="sourcePoint" />
            <mxPoint x="1324" y="891" as="targetPoint" />
            <Array as="points">
              <mxPoint x="1099" y="786" />
              <mxPoint x="1099" y="863" />
              <mxPoint x="1324" y="863" />
            </Array>
          </mxGeometry>
        </mxCell>
        <mxCell id="pQDB7X862aVxrx34mf7B-118" value="" style="endArrow=none;html=1;rounded=0;entryX=0;entryY=0.5;entryDx=0;entryDy=0;exitX=-0.001;exitY=0.115;exitDx=0;exitDy=0;exitPerimeter=0;" parent="1" source="pQDB7X862aVxrx34mf7B-75" edge="1">
          <mxGeometry width="50" height="50" relative="1" as="geometry">
            <mxPoint x="847" y="550" as="sourcePoint" />
            <mxPoint x="1402" y="491" as="targetPoint" />
            <Array as="points">
              <mxPoint x="867" y="549" />
              <mxPoint x="867" y="199" />
              <mxPoint x="1289" y="199" />
              <mxPoint x="1291" y="491" />
            </Array>
          </mxGeometry>
        </mxCell>
        <mxCell id="pQDB7X862aVxrx34mf7B-119" value="" style="endArrow=none;html=1;rounded=0;entryX=-0.002;entryY=0.94;entryDx=0;entryDy=0;entryPerimeter=0;" parent="1" source="pQDB7X862aVxrx34mf7B-72" target="pQDB7X862aVxrx34mf7B-14" edge="1">
          <mxGeometry width="50" height="50" relative="1" as="geometry">
            <mxPoint x="1302" y="466" as="sourcePoint" />
            <mxPoint x="1352" y="416" as="targetPoint" />
          </mxGeometry>
        </mxCell>
        <mxCell id="pQDB7X862aVxrx34mf7B-121" value="1..*" style="edgeLabel;resizable=0;html=1;align=right;verticalAlign=bottom;fontSize=12;" parent="1" connectable="0" vertex="1">
          <mxGeometry x="965" y="982" as="geometry" />
        </mxCell>
        <mxCell id="pQDB7X862aVxrx34mf7B-122" value="1..*" style="edgeLabel;resizable=0;html=1;align=right;verticalAlign=bottom;fontSize=12;" parent="1" connectable="0" vertex="1">
          <mxGeometry x="1154" y="789" as="geometry">
            <mxPoint x="-82" y="18" as="offset" />
          </mxGeometry>
        </mxCell>
        <mxCell id="pQDB7X862aVxrx34mf7B-123" value="0..*" style="edgeLabel;resizable=0;html=1;align=left;verticalAlign=bottom;fontSize=12;" parent="1" connectable="0" vertex="1">
          <mxGeometry x="1298" y="889" as="geometry" />
        </mxCell>
        <mxCell id="pQDB7X862aVxrx34mf7B-124" value="Tratta" style="text;html=1;align=center;verticalAlign=middle;resizable=0;points=[];autosize=1;strokeColor=none;fillColor=none;" parent="1" vertex="1">
          <mxGeometry x="1493" y="373" width="49" height="26" as="geometry" />
        </mxCell>
        <mxCell id="pQDB7X862aVxrx34mf7B-125" value="0..*" style="edgeLabel;resizable=0;html=1;align=left;verticalAlign=bottom;fontSize=12;" parent="1" connectable="0" vertex="1">
          <mxGeometry x="1348" y="889" as="geometry" />
        </mxCell>
        <mxCell id="pQDB7X862aVxrx34mf7B-126" value="0..*" style="text;html=1;align=center;verticalAlign=middle;resizable=0;points=[];autosize=1;strokeColor=none;fillColor=none;" parent="1" vertex="1">
          <mxGeometry x="1096" y="572" width="36" height="26" as="geometry" />
        </mxCell>
        <mxCell id="pQDB7X862aVxrx34mf7B-127" value="1" style="edgeLabel;resizable=0;html=1;align=left;verticalAlign=bottom;fontSize=12;" parent="1" connectable="0" vertex="1">
          <mxGeometry x="875" y="541" as="geometry" />
        </mxCell>
        <mxCell id="pQDB7X862aVxrx34mf7B-130" value="Aggiunge" style="text;html=1;align=center;verticalAlign=middle;whiteSpace=wrap;rounded=0;" parent="1" vertex="1">
          <mxGeometry x="998" y="169" width="60" height="30" as="geometry" />
        </mxCell>
        <mxCell id="pQDB7X862aVxrx34mf7B-131" value="0..*" style="text;html=1;align=center;verticalAlign=middle;resizable=0;points=[];autosize=1;strokeColor=none;fillColor=none;" parent="1" vertex="1">
          <mxGeometry x="1371" y="471" width="36" height="26" as="geometry" />
        </mxCell>
        <mxCell id="pQDB7X862aVxrx34mf7B-132" value="0..*" style="text;html=1;align=center;verticalAlign=middle;resizable=0;points=[];autosize=1;strokeColor=none;fillColor=none;" parent="1" vertex="1">
          <mxGeometry x="1371" y="528" width="36" height="26" as="geometry" />
        </mxCell>
        <mxCell id="pQDB7X862aVxrx34mf7B-133" value="0..*" style="text;html=1;align=center;verticalAlign=middle;resizable=0;points=[];autosize=1;strokeColor=none;fillColor=none;" parent="1" vertex="1">
          <mxGeometry x="1205" y="526" width="36" height="26" as="geometry" />
        </mxCell>
        <mxCell id="pQDB7X862aVxrx34mf7B-134" value="Si_Iscrive" style="text;html=1;align=center;verticalAlign=middle;whiteSpace=wrap;rounded=0;" parent="1" vertex="1">
          <mxGeometry x="1273" y="522" width="60" height="30" as="geometry" />
        </mxCell>
        <mxCell id="pQDB7X862aVxrx34mf7B-135" value="" style="endArrow=none;html=1;rounded=0;" parent="1" source="pQDB7X862aVxrx34mf7B-10" target="pQDB7X862aVxrx34mf7B-19" edge="1">
          <mxGeometry width="50" height="50" relative="1" as="geometry">
            <mxPoint x="1545" y="371" as="sourcePoint" />
            <mxPoint x="1595" y="321" as="targetPoint" />
          </mxGeometry>
        </mxCell>
        <mxCell id="pQDB7X862aVxrx34mf7B-136" value="0..*" style="text;html=1;align=center;verticalAlign=middle;whiteSpace=wrap;rounded=0;" parent="1" vertex="1">
          <mxGeometry x="1479" y="396" width="60" height="30" as="geometry" />
        </mxCell>
        <mxCell id="pQDB7X862aVxrx34mf7B-137" value="1..*" style="text;html=1;align=center;verticalAlign=middle;whiteSpace=wrap;rounded=0;" parent="1" vertex="1">
          <mxGeometry x="1477" y="347" width="60" height="30" as="geometry" />
        </mxCell>
        <mxCell id="pQDB7X862aVxrx34mf7B-138" value="Riguarda" style="text;strokeColor=none;fillColor=none;align=left;verticalAlign=top;spacingLeft=4;spacingRight=4;overflow=hidden;rotatable=0;points=[[0,0.5],[1,0.5]];portConstraint=eastwest;whiteSpace=wrap;html=1;" parent="1" vertex="1">
          <mxGeometry x="1143" y="860" width="59" height="26" as="geometry" />
        </mxCell>
        <mxCell id="pQDB7X862aVxrx34mf7B-139" value="1" style="text;strokeColor=none;fillColor=none;align=left;verticalAlign=top;spacingLeft=4;spacingRight=4;overflow=hidden;rotatable=0;points=[[0,0.5],[1,0.5]];portConstraint=eastwest;whiteSpace=wrap;html=1;" parent="1" vertex="1">
          <mxGeometry x="969" y="572" width="18" height="26" as="geometry" />
        </mxCell>
        <mxCell id="pQDB7X862aVxrx34mf7B-140" value="0..*" style="text;strokeColor=none;fillColor=none;align=left;verticalAlign=top;spacingLeft=4;spacingRight=4;overflow=hidden;rotatable=0;points=[[0,0.5],[1,0.5]];portConstraint=eastwest;whiteSpace=wrap;html=1;" parent="1" vertex="1">
          <mxGeometry x="972" y="669" width="31" height="26" as="geometry" />
        </mxCell>
        <mxCell id="pQDB7X862aVxrx34mf7B-141" value="Crea" style="text;strokeColor=none;fillColor=none;align=left;verticalAlign=top;spacingLeft=4;spacingRight=4;overflow=hidden;rotatable=0;points=[[0,0.5],[1,0.5]];portConstraint=eastwest;whiteSpace=wrap;html=1;" parent="1" vertex="1">
          <mxGeometry x="969" y="618" width="43" height="26" as="geometry" />
        </mxCell>
        <mxCell id="2nrqJMcuDl9b-zsEubaj-1" value="1" style="edgeLabel;resizable=0;html=1;align=right;verticalAlign=bottom;fontSize=12;" connectable="0" vertex="1" parent="1">
          <mxGeometry x="1475" y="726.0048275862068" as="geometry">
            <mxPoint x="29" y="-49" as="offset" />
          </mxGeometry>
        </mxCell>
      </root>
    </mxGraphModel>
  </diagram>
  <diagram id="VQ2Tho4DGrghhv9o-oon" name="Pagina-2">
    <mxGraphModel grid="1" page="1" gridSize="10" guides="1" tooltips="1" connect="1" arrows="1" fold="1" pageScale="1" pageWidth="827" pageHeight="1169" math="0" shadow="0">
      <root>
        <mxCell id="0" />
        <mxCell id="1" parent="0" />
      </root>
    </mxGraphModel>
  </diagram>
</mxfile>
